<svg viewBox="0 0 1000 1000" xmlns="http://www.w3.org/2000/svg"><defs><clipPath id="a"><path fill="currentColor" d="M776 608.5q22 108.5-84.5 131T474 842.5q-111 80.5-194-21T132 610Q67 500 86 356.5T263.5 237q158.5 24 250-18T684 243q79 66 74.5 161.5t17.5 204Z"/></clipPath><pattern id="b" patternUnits="userSpaceOnUse" width="25" height="25" viewBox="0 0 100 100" fill="#212121" patternTransform="rotate(-45 0 0)"><path d="M0 0v100" stroke="#212121" stroke-width="20"/></pattern></defs><g clip-path="url(#a)"><path fill="url(#b)" d="M776 608.5q22 108.5-84.5 131T474 842.5q-111 80.5-194-21T132 610Q67 500 86 356.5T263.5 237q158.5 24 250-18T684 243q79 66 74.5 161.5t17.5 204Z"/></g></svg>