<svg viewBox="0 0 1000 1000" xmlns="http://www.w3.org/2000/svg"><defs><clipPath id="a"><path fill="currentColor" d="M896.5 628Q852 756 743 834t-248 93q-139 15-264-63T82 643q-24-143 33-262t161-185q104-66 220-52.5T757.5 182Q903 207 922 353.5T896.5 628Z"/></clipPath><pattern id="b" patternUnits="userSpaceOnUse" width="25" height="25" viewBox="0 0 100 100" fill="#212121"><path stroke="#212121" stroke-width="10" d="M50 0v100M0 50h100"/></pattern></defs><g clip-path="url(#a)"><path fill="url(#b)" d="M896.5 628Q852 756 743 834t-248 93q-139 15-264-63T82 643q-24-143 33-262t161-185q104-66 220-52.5T757.5 182Q903 207 922 353.5T896.5 628Z"/></g></svg>