<svg viewBox="0 0 1000 1000" xmlns="http://www.w3.org/2000/svg"><defs><clipPath id="a"><path fill="currentColor" d="M895 640.5Q887 781 745 799t-250.5 35q-108.5 17-219-36.5T105.5 622q-59.5-122 34-219T290 168Q347 30 492.5 53.5t255 105Q857 240 880 370t15 270.5Z"/></clipPath><pattern id="b" patternUnits="userSpaceOnUse" width="25" height="25" viewBox="0 0 100 100" fill="#212121"><path stroke="#212121" stroke-width="10" d="M50 0v100M0 50h100"/></pattern></defs><g clip-path="url(#a)"><path fill="url(#b)" d="M895 640.5Q887 781 745 799t-250.5 35q-108.5 17-219-36.5T105.5 622q-59.5-122 34-219T290 168Q347 30 492.5 53.5t255 105Q857 240 880 370t15 270.5Z"/></g></svg>