<svg viewBox="0 0 1000 1000" xmlns="http://www.w3.org/2000/svg"><defs><clipPath id="a"><path fill="currentColor" d="M896 621.5Q835 743 714.5 766t-243 110Q349 963 244 862.5T103 631q-36-131 35.5-236.5t162-168Q391 164 504 152.5T736.5 191q119.5 50 170 179.5t-10.5 251Z"/></clipPath><pattern id="b" patternUnits="userSpaceOnUse" width="25" height="25" viewBox="0 0 100 100" fill="#212121" patternTransform="rotate(-45 0 0)"><path d="M0 0v100" stroke="#212121" stroke-width="20"/></pattern></defs><g clip-path="url(#a)"><path fill="url(#b)" d="M896 621.5Q835 743 714.5 766t-243 110Q349 963 244 862.5T103 631q-36-131 35.5-236.5t162-168Q391 164 504 152.5T736.5 191q119.5 50 170 179.5t-10.5 251Z"/></g></svg>